<svg width="32" height="32" viewBox="0 0 32 32" fill="none" xmlns="http://www.w3.org/2000/svg">
<path d="M10.6667 14.25L14.25 10.625L11.9167 8.25L11.25 8.91666C10.9444 9.22222 10.5625 9.38194 10.1042 9.39583C9.64583 9.40972 9.25 9.25 8.91667 8.91666C8.58333 8.58333 8.41667 8.1875 8.41667 7.72916C8.41667 7.27083 8.58333 6.875 8.91667 6.54166L9.54167 5.91666L7.66667 4.04166L4.04167 7.66666L10.6667 14.25ZM24.3333 27.9583L27.9583 24.3333L26.0833 22.4583L25.4167 23.0833C25.0833 23.4167 24.6944 23.5833 24.25 23.5833C23.8056 23.5833 23.4167 23.4167 23.0833 23.0833C22.75 22.75 22.5833 22.3611 22.5833 21.9167C22.5833 21.4722 22.75 21.0833 23.0833 20.75L23.7083 20.0833L21.3333 17.75L17.75 21.3333L24.3333 27.9583ZM23.0417 6.70833L25.375 9.04166L27.7083 6.70833L25.3333 4.33333L23.0417 6.70833ZM2.66667 31C2.19444 31 1.79861 30.8403 1.47917 30.5208C1.15972 30.2014 1 29.8056 1 29.3333V24.625C1 24.4028 1.04167 24.1875 1.125 23.9792C1.20833 23.7708 1.33333 23.5833 1.5 23.4167L8.29167 16.625L1.08333 9.41666C0.611111 8.94444 0.375 8.36111 0.375 7.66666C0.375 6.97222 0.611111 6.38888 1.08333 5.91666L5.91667 1.08333C6.38889 0.611106 6.97222 0.38194 7.66667 0.395828C8.36111 0.409717 8.94444 0.652773 9.41667 1.125L16.6667 8.33333L22.9583 2C23.2917 1.66666 23.6667 1.41666 24.0833 1.25C24.5 1.08333 24.9306 0.999995 25.375 0.999995C25.8194 0.999995 26.25 1.08333 26.6667 1.25C27.0833 1.41666 27.4583 1.66666 27.7917 2L30 4.24999C30.3333 4.58333 30.5833 4.95833 30.75 5.375C30.9167 5.79166 31 6.22222 31 6.66666C31 7.11111 30.9167 7.53472 30.75 7.9375C30.5833 8.34027 30.3333 8.70833 30 9.04166L23.7083 15.375L30.9167 22.5833C31.3889 23.0556 31.625 23.6389 31.625 24.3333C31.625 25.0278 31.3889 25.6111 30.9167 26.0833L26.0833 30.9167C25.6111 31.3889 25.0278 31.625 24.3333 31.625C23.6389 31.625 23.0556 31.3889 22.5833 30.9167L15.375 23.7083L8.58333 30.5C8.41667 30.6667 8.22917 30.7917 8.02083 30.875C7.8125 30.9583 7.59722 31 7.375 31H2.66667Z" fill="#707070"/>
</svg>
